<?xml version="1.0" encoding="utf-8"?>
<!-- Generator: Adobe Illustrator 26.3.1, SVG Export Plug-In . SVG Version: 6.00 Build 0)  -->
<svg version="1.1" id="Layer_1" xmlns="http://www.w3.org/2000/svg" xmlns:xlink="http://www.w3.org/1999/xlink" x="0px" y="0px"
	 viewBox="0 0 500 500" style="enable-background:new 0 0 500 500;" xml:space="preserve">
<style type="text/css">
	.st0{fill:#0D0D0D;}
</style>
<path class="st0" d="M250,454.3c-61.9,0-123.9-0.4-185.8,0.3c-14.8,0.2-18.8-4.4-18.7-18.9C46,311.9,46,188,45.5,64.2
	c-0.1-14.8,4.4-18.8,18.9-18.8c123.8,0.5,247.7,0.5,371.5-0.1c14.9-0.1,18.7,4.8,18.6,19.1c-0.5,123.8-0.6,247.7,0,371.5
	c0.1,14.8-4.4,18.8-18.9,18.6C373.7,453.9,311.8,454.3,250,454.3z M390.4,174.8c-2.8-2.9-5-5.3-7.3-7.6
	c-9.6-9.7-20.2-18.7-28.7-29.2c-8.7-10.7-14.1-8.1-22.5,0.4c-56.8,57.4-114.2,114.2-171,171.6c-12.2,12.3-35.1,24.2-33.1,37.6
	c2.2,14.6,23.4,26.1,35.5,39.6c6.7,7.5,10.8,5.6,16.9-0.6c67.5-67.9,135.3-135.5,202.9-203.2C385.7,180.7,388,177.7,390.4,174.8z
	 M62.1,386.4c38.8-39.3,73.9-74.8,109-110.3c20.6-20.8,41.2-41.7,62.3-62.1c6-5.8,4.6-9.1-0.7-14c-10.4-9.8-21-19.6-30.4-30.4
	c-7.7-8.9-12.3-9.6-21.1-0.5c-36.3,37.4-73.4,74-110.4,110.7c-5.9,5.8-9.2,11.5-9,20.2C62.5,326.7,62.1,353.4,62.1,386.4z
	 M151.2,438.1c31.8,0,57.7-0.6,83.6,0.3c10.2,0.3,16.9-3.3,23.7-10.2c20.9-21.5,42.8-42.1,63.3-63.9c12-12.8,35.6-23.4,32.8-38.9
	c-2.7-14.8-23.4-26.3-36.2-39.3c-0.5-0.5-1-0.9-1.3-1.4c-4.5-5.8-8-3.6-12.3,0.7C254.9,334.9,205,384.5,151.2,438.1z M385.1,62.3
	c-32.6,0-60.5,0.2-88.4-0.2c-7.5-0.1-11.8,3.6-16.6,8.4c-22.4,22.7-44.9,45.4-67.8,67.6c-6.7,6.5-8.7,11-0.7,18.1
	c10.7,9.5,20.7,19.8,30.4,30.3c6.3,6.8,10.5,8.4,18.1,0.7C300.4,146.5,341.1,106.3,385.1,62.3z M265.1,62.4
	c-12.1,0-19.8,1.1-27.1-0.2c-50.2-8.9-88.7,8.8-118.6,49.4c-9.9,13.4-31.7,24-32.3,36.7c-0.8,14.8,21.7,24.9,32.9,38.1
	c6.9,8.2,11.4,10.6,20.7,1C180.3,146.4,221.1,106.4,265.1,62.4z M437.9,151.3c-38.2,38.5-72.5,73.1-107,107.6
	c-5.2,5.2-8.4,8.9-1.1,15.5c12.1,10.9,23.2,22.8,34.7,34.3c3.2,3.2,6,7.2,11.1,2c19.6-20,39.4-39.8,59.2-59.6c3.2-3.2,3-7,3-10.8
	C437.9,212.5,437.9,184.6,437.9,151.3z M437.8,271.7c-38,38-72.3,72.7-107.1,106.9c-7.1,7-8.4,11.3-0.3,18.4
	c11.2,9.9,21.3,21,31.9,31.5c3.4,3.3,6.2,8.9,12.3,2.6c20-20.5,40.4-40.5,60.4-61c1.9-2,2.6-5.9,2.7-8.9
	C437.9,332.9,437.8,304.5,437.8,271.7z M437.9,97.5c0-4.3,0.4-7-0.1-9.5c-1.7-8.4,5.4-21.5-3.8-24.4c-12.1-3.9-26.6-4.3-36.7,9.3
	c-6.1,8.2-14.4,14.8-21.8,22.2c-20.5,20.4-20.5,20.4,0,40.9c30.7,30.7,31.6,30.6,57.8-2.7C442.5,121.6,435.5,108.2,437.9,97.5z
	 M96.1,438.1c5.2,0,10.4,0,15.6,0c13.7,0,43.1-17.2,44.5-28.7c1.5-12.3-12.4-16.3-18.9-24.6c-5.2-6.6-12.1-11.8-17.7-18.1
	c-5.1-5.7-8.9-7.9-15.3-0.9c-11.8,13-24.6,25-37.1,37.4c-9.3,9.3-6.3,21.4-3.9,31.2c1.9,7.7,12.5,2.5,19.1,3.5
	C86.9,438.6,91.6,438.1,96.1,438.1z M142,62.3c-24,0-47.2,0.1-70.4-0.1c-6,0-9.8,1-9.7,8.3c0.3,23.7,0.1,47.4,0.1,71.7
	C89.1,115.3,114.7,89.7,142,62.3z M62.1,260.6c1.6,1.1,3.3,2.2,4.9,3.3c5.3-6.4,10.5-12.9,15.9-19.2c10.9-12.6,33.1-22.7,31.7-36.4
	c-1.3-13.2-20.8-24.8-32.7-36.6c-3.7-3.6-6.2-11.4-13.6-7.9c-6.1,2.9-6.2,9.1-6.2,15.2C62.2,206.3,62.1,233.4,62.1,260.6z
	 M344.9,437.2c-32.1-41.5-32.1-41.5-65.5-7.1c-1.6,1.7-3.1,3.6-6.1,7.1C298,437.2,320.4,437.2,344.9,437.2z M395.4,438
	c47.1,0.2,50.2-3.2,40.1-40.4C422.9,410.2,409.6,423.6,395.4,438z"/>
</svg>
